<svg width="440" height="75" viewBox="0 0 440 75" fill="none" xmlns="http://www.w3.org/2000/svg">
<path d="M44 0L53.8786 25.9119H85.8465L59.9839 41.9263L69.8625 67.8381L44 51.8237L18.1374 67.8381L28.0161 41.9263L2.15351 25.9119H34.1214L44 0Z" fill="#FFF853"/>
<path d="M132 0L141.879 25.9119H173.846L147.984 41.9263L157.863 67.8381L132 51.8237L106.137 67.8381L116.016 41.9263L90.1535 25.9119H122.121L132 0Z" fill="#FFF853"/>
<path d="M220 0L229.879 25.9119H261.846L235.984 41.9263L245.863 67.8381L220 51.8237L194.137 67.8381L204.016 41.9263L178.154 25.9119H210.121L220 0Z" fill="#FFF853"/>
<path d="M308 0L317.879 25.9119H349.846L323.984 41.9263L333.863 67.8381L308 51.8237L282.137 67.8381L292.016 41.9263L266.154 25.9119H298.121L308 0Z" fill="#FFF853"/>
<path d="M396 0L405.879 25.9119H437.846L411.984 41.9263L421.863 67.8381L396 51.8237L370.137 67.8381L380.016 41.9263L354.154 25.9119H386.121L396 0Z" fill="#FFF853"/>
</svg>
