<svg width="17" height="16" viewBox="0 0 17 16" fill="none" xmlns="http://www.w3.org/2000/svg">
<path d="M15.4062 8C15.4062 9.72391 14.6786 11.3772 13.3835 12.5962C12.0883 13.8152 10.3317 14.5 8.5 14.5C6.66835 14.5 4.91172 13.8152 3.61654 12.5962C2.32137 11.3772 1.59375 9.72391 1.59375 8C1.59375 6.27609 2.32137 4.62279 3.61654 3.40381C4.91172 2.18482 6.66835 1.5 8.5 1.5C10.3317 1.5 12.0883 2.18482 13.3835 3.40381C14.6786 4.62279 15.4062 6.27609 15.4062 8ZM0 8C0 10.1217 0.895533 12.1566 2.48959 13.6569C4.08365 15.1571 6.24566 16 8.5 16C10.7543 16 12.9163 15.1571 14.5104 13.6569C16.1045 12.1566 17 10.1217 17 8C17 5.87827 16.1045 3.84344 14.5104 2.34315C12.9163 0.842855 10.7543 0 8.5 0C6.24566 0 4.08365 0.842855 2.48959 2.34315C0.895533 3.84344 0 5.87827 0 8ZM7.70312 3.75V8C7.70312 8.25 7.83594 8.48438 8.0584 8.625L11.2459 10.625C11.6111 10.8563 12.1059 10.7625 12.3516 10.4156C12.5973 10.0687 12.4977 9.60625 12.1291 9.375L9.29688 7.6V3.75C9.29688 3.33437 8.9416 3 8.5 3C8.0584 3 7.70312 3.33437 7.70312 3.75Z" fill="black"/>
</svg>
