<svg width="25" height="15" viewBox="0 0 25 15" fill="none" xmlns="http://www.w3.org/2000/svg">
<path d="M2.34375 0C1.0498 0 0 0.839844 0 1.875C0 2.46484 0.34668 3.01953 0.9375 3.375L11.5625 9.75C12.1191 10.082 12.8809 10.082 13.4375 9.75L24.0625 3.375C24.6533 3.01953 25 2.46484 25 1.875C25 0.839844 23.9502 0 22.6562 0H2.34375ZM0 4.375V12.5C0 13.8789 1.40137 15 3.125 15H21.875C23.5986 15 25 13.8789 25 12.5V4.375L14.375 10.75C13.2617 11.418 11.7383 11.418 10.625 10.75L0 4.375Z" fill="#818181"/>
</svg>
