<svg width="68" height="68" viewBox="0 0 68 68" fill="none" xmlns="http://www.w3.org/2000/svg">
<circle cx="34" cy="34" r="34" fill="#A6A6A6"/>
<path d="M51.4606 52.2912C49.0057 54.8734 46.0261 55.6785 42.6624 55.8454C39.1955 56.0515 28.8045 56.0515 25.3376 55.8454C21.9739 55.6686 19.0037 54.8635 16.5394 52.2912C14.0752 49.7188 13.3069 46.5967 13.1476 43.072C12.9508 39.4392 12.9508 28.5509 13.1476 24.9182L51.4606 52.2912ZM51.4606 52.2912C53.9154 49.7188 54.6838 46.5967 54.8524 43.072M51.4606 52.2912L54.8524 43.072M54.8524 43.072C55.0492 39.4392 55.0492 28.5607 54.8524 24.928V43.072ZM54.3529 24.9506L54.3532 24.9551C54.549 28.5698 54.549 39.4302 54.3531 43.0449L54.353 43.0481C54.1871 46.5153 53.4357 49.4973 51.0989 51.946L51.0982 51.9467C48.7656 54.4002 45.9324 55.1825 42.6376 55.346L42.6327 55.3462C39.1856 55.5513 28.8144 55.5513 25.3673 55.3462L25.3639 55.3461C22.0685 55.1729 19.2431 54.3907 16.9005 51.9453C14.555 49.4969 13.8037 46.5155 13.6471 43.0494L13.6468 43.0449C13.4511 39.4302 13.4511 28.56 13.6468 24.9453H13.6469L13.647 24.9421C13.813 21.4738 14.5554 18.4928 16.9005 16.0449C19.2429 13.5997 22.0773 12.8175 25.3625 12.654L25.3625 12.654L25.3673 12.6538C28.8144 12.4487 39.1856 12.4487 42.6327 12.6538L42.6361 12.6539C45.9322 12.8271 48.7661 13.6096 51.0989 16.054L51.0995 16.0547C53.445 18.5031 54.1963 21.4845 54.3529 24.9506ZM46.574 51.614L46.5759 51.6133C48.5518 50.7829 50.0632 49.1955 50.8411 47.1473C51.4234 45.614 51.6327 43.0894 51.7062 40.6176C51.7593 38.8316 51.7418 37.0179 51.7276 35.5512C51.722 34.9724 51.717 34.4476 51.717 34C51.717 33.5523 51.722 33.0276 51.7276 32.449C51.7418 30.9832 51.7593 29.171 51.7062 27.3861C51.6327 24.9152 51.4234 22.3911 50.8413 20.8532L50.8406 20.8515C50.0537 18.7954 48.5431 17.2071 46.5746 16.3862L46.5732 16.3856C45.1002 15.7766 42.6809 15.5573 40.3224 15.4791C38.6037 15.4221 36.8576 15.4396 35.4521 15.4537C34.9125 15.4592 34.4231 15.4641 34.0047 15.4641C33.5785 15.4641 33.0786 15.4588 32.5269 15.4529C31.1276 15.4381 29.3956 15.4197 27.6907 15.4754C25.3332 15.5524 22.9135 15.7717 21.4353 16.386L21.4335 16.3867C19.4575 17.2171 17.9462 18.8045 17.1683 20.8527L17.1678 20.854C16.5907 22.3865 16.3814 24.9102 16.3067 27.3822C16.2523 29.1816 16.2691 31.0086 16.2825 32.481C16.2877 33.0469 16.2924 33.5605 16.2924 34C16.2924 34.4477 16.2873 34.9724 16.2818 35.551C16.2676 37.0168 16.2501 38.829 16.3032 40.6139C16.3767 43.0848 16.586 45.6089 17.1681 47.1468L17.1687 47.1485C17.9556 49.2046 19.4663 50.7929 21.4348 51.6138L21.4362 51.6144C22.9092 52.2234 25.3285 52.4427 27.6869 52.5209C29.4057 52.5779 31.1518 52.5604 32.5573 52.5463C33.0969 52.5408 33.5863 52.5359 34.0047 52.5359C34.4309 52.5359 34.9308 52.5412 35.4825 52.5471C36.8817 52.5619 38.6138 52.5803 40.3187 52.5246C42.6762 52.4476 45.0958 52.2283 46.574 51.614ZM23.7388 34C23.7388 28.0095 28.3434 23.219 34.0047 23.219C39.6659 23.219 44.2706 28.0095 44.2706 34C44.2706 39.9905 39.6659 44.781 34.0047 44.781C28.3434 44.781 23.7388 39.9905 23.7388 34ZM26.5055 34C26.5055 38.2994 29.8562 41.8342 34.0047 41.8342C38.1531 41.8342 41.5039 38.2994 41.5039 34C41.5039 29.7011 38.1629 26.1658 34.0047 26.1658C29.8464 26.1658 26.5055 29.7011 26.5055 34ZM47.222 22.2575C47.222 23.4653 46.3009 24.3888 45.2109 24.3888C44.1139 24.3888 43.1998 23.458 43.1998 22.2575C43.1998 21.0583 44.1221 20.1262 45.2109 20.1262C46.2997 20.1262 47.222 21.0583 47.222 22.2575Z" fill="white" stroke="#FEFEFE"/>
</svg>
