<svg width="68" height="68" viewBox="0 0 68 68" fill="none" xmlns="http://www.w3.org/2000/svg">
<circle cx="34" cy="34" r="34" fill="#A6A6A6"/>
<path d="M34.0047 22.719C28.0455 22.719 23.2388 27.7557 23.2388 34C23.2388 40.2443 28.0455 45.281 34.0047 45.281C39.9639 45.281 44.7706 40.2443 44.7706 34C44.7706 27.7557 39.9639 22.719 34.0047 22.719ZM34.0047 41.3342C30.1537 41.3342 27.0055 38.0451 27.0055 34C27.0055 29.9549 30.1443 26.6658 34.0047 26.6658C37.865 26.6658 41.0039 29.9549 41.0039 34C41.0039 38.0451 37.8557 41.3342 34.0047 41.3342ZM47.722 22.2575C47.722 23.7204 46.5977 24.8888 45.2109 24.8888C43.8148 24.8888 42.6998 23.7106 42.6998 22.2575C42.6998 20.8044 43.8242 19.6262 45.2109 19.6262C46.5977 19.6262 47.722 20.8044 47.722 22.2575ZM54.8524 24.928C54.6931 21.4033 53.9248 18.2812 51.4606 15.7088C49.0057 13.1364 46.0261 12.3314 42.6624 12.1546C39.1955 11.9485 28.8045 11.9485 25.3376 12.1546C21.9833 12.3215 19.0037 13.1266 16.5394 15.699C14.0752 18.2713 13.3162 21.3935 13.1476 24.9182C12.9508 28.5509 12.9508 39.4392 13.1476 43.072C13.3069 46.5967 14.0752 49.7188 16.5394 52.2912C19.0037 54.8635 21.9739 55.6686 25.3376 55.8454C28.8045 56.0515 39.1955 56.0515 42.6624 55.8454C46.0261 55.6785 49.0057 54.8734 51.4606 52.2912C53.9154 49.7188 54.6838 46.5967 54.8524 43.072C55.0492 39.4392 55.0492 28.5607 54.8524 24.928ZM50.3737 46.9698C49.6428 48.8941 48.228 50.3767 46.3822 51.1523C43.6181 52.301 37.0592 52.0359 34.0047 52.0359C30.9501 52.0359 24.3819 52.2912 21.6272 51.1523C19.7907 50.3865 18.3759 48.9039 17.6357 46.9698C16.5394 44.0734 16.7924 37.2007 16.7924 34C16.7924 30.7993 16.5488 23.9168 17.6357 21.0302C18.3665 19.1059 19.7814 17.6233 21.6272 16.8477C24.3913 15.699 30.9501 15.9641 34.0047 15.9641C37.0592 15.9641 43.6274 15.7088 46.3822 16.8477C48.2186 17.6135 49.6335 19.0961 50.3737 21.0302C51.4699 23.9266 51.217 30.7993 51.217 34C51.217 37.2007 51.4699 44.0832 50.3737 46.9698Z" fill="white"/>
</svg>
