<svg width="16" height="15" viewBox="0 0 16 15" fill="none" xmlns="http://www.w3.org/2000/svg">
<path d="M8.9875 14.625C11.125 12.7441 16 8.18555 16 5.625C16 2.51953 12.4167 0 8 0C3.58333 0 0 2.51953 0 5.625C0 8.18555 4.875 12.7441 7.0125 14.625C7.525 15.0732 8.475 15.0732 8.9875 14.625ZM8 3.75C8.70724 3.75 9.38552 3.94754 9.88562 4.29917C10.3857 4.65081 10.6667 5.12772 10.6667 5.625C10.6667 6.12228 10.3857 6.59919 9.88562 6.95083C9.38552 7.30246 8.70724 7.5 8 7.5C7.29276 7.5 6.61448 7.30246 6.11438 6.95083C5.61428 6.59919 5.33333 6.12228 5.33333 5.625C5.33333 5.12772 5.61428 4.65081 6.11438 4.29917C6.61448 3.94754 7.29276 3.75 8 3.75Z" fill="black"/>
</svg>
