<svg width="71" height="68" viewBox="0 0 71 68" fill="none" xmlns="http://www.w3.org/2000/svg">
<path d="M71 34C71 52.7823 55.1109 68 35.5 68C31.8355 68 28.3141 67.4653 24.9931 66.4782C26.4389 64.2161 28.6004 60.5145 29.402 57.5669C29.8315 55.9766 31.6065 49.4782 31.6065 49.4782C32.7659 51.5895 36.1442 53.3855 39.7371 53.3855C50.4444 53.3855 58.1599 43.9532 58.1599 32.2315C58.1599 21.0032 48.5835 12.5992 36.273 12.5992C20.9565 12.5992 12.8115 22.4427 12.8115 33.1774C12.8115 38.1677 15.5885 44.3782 20.0117 46.3524C20.6845 46.654 21.0423 46.5169 21.1998 45.9C21.3143 45.4339 21.9155 43.1169 22.1875 42.0476C22.2734 41.7048 22.2304 41.4032 21.9442 41.0742C20.4984 39.3605 19.3246 36.2347 19.3246 33.3145C19.3246 25.8153 25.2508 18.5629 35.3569 18.5629C44.0744 18.5629 50.1867 24.2524 50.1867 32.396C50.1867 41.5952 45.3341 47.9702 39.0214 47.9702C35.5429 47.9702 32.9234 45.2145 33.7679 41.8282C34.77 37.7839 36.7024 33.4242 36.7024 30.504C36.7024 27.8992 35.2423 25.7194 32.2077 25.7194C28.6433 25.7194 25.7804 29.2427 25.7804 33.9726C25.7804 36.9887 26.8397 39.0177 26.8397 39.0177C26.8397 39.0177 23.3327 53.2484 22.6885 55.9081C21.9728 58.8419 22.2591 62.9823 22.5597 65.6694C9.36169 60.7202 0 48.4089 0 34C0 15.2177 15.8891 0 35.5 0C55.1109 0 71 15.2177 71 34Z" fill="#9A9A9A"/>
</svg>
