<svg width="12" height="10" viewBox="0 0 12 10" fill="none" xmlns="http://www.w3.org/2000/svg">
<path d="M10.875 5C10.875 6.07744 10.3614 7.11075 9.44715 7.87262C8.53291 8.63449 7.29293 9.0625 6 9.0625C4.70707 9.0625 3.46709 8.63449 2.55285 7.87262C1.63861 7.11075 1.125 6.07744 1.125 5C1.125 3.92256 1.63861 2.88925 2.55285 2.12738C3.46709 1.36551 4.70707 0.9375 6 0.9375C7.29293 0.9375 8.53291 1.36551 9.44715 2.12738C10.3614 2.88925 10.875 3.92256 10.875 5ZM0 5C0 6.32608 0.632141 7.59785 1.75736 8.53553C2.88258 9.47322 4.4087 10 6 10C7.5913 10 9.11742 9.47322 10.2426 8.53553C11.3679 7.59785 12 6.32608 12 5C12 3.67392 11.3679 2.40215 10.2426 1.46447C9.11742 0.526784 7.5913 0 6 0C4.4087 0 2.88258 0.526784 1.75736 1.46447C0.632141 2.40215 0 3.67392 0 5ZM5.4375 2.34375V5C5.4375 5.15625 5.53125 5.30273 5.68828 5.39062L7.93828 6.64062C8.19609 6.78516 8.54531 6.72656 8.71875 6.50977C8.89219 6.29297 8.82187 6.00391 8.56172 5.85938L6.5625 4.75V2.34375C6.5625 2.08398 6.31172 1.875 6 1.875C5.68828 1.875 5.4375 2.08398 5.4375 2.34375Z" fill="black"/>
</svg>
