<svg width="16" height="15" viewBox="0 0 16 15" fill="none" xmlns="http://www.w3.org/2000/svg">
<path d="M5.1529 0.721332C4.91228 0.176434 4.27794 -0.113592 3.67171 0.0416744L0.921834 0.744768C0.378108 0.885387 0 1.34826 0 1.87558C0 9.12331 6.26847 15 13.9994 15C14.5619 15 15.0556 14.6455 15.2056 14.1358L15.9555 11.5578C16.1212 10.9894 15.8118 10.3947 15.2306 10.1692L12.2307 8.99734C11.7214 8.79813 11.1308 8.93581 10.7839 9.33716L9.52146 10.7814C7.32155 9.80589 5.54038 8.13605 4.4998 6.07364L6.04036 4.89302C6.46846 4.56491 6.61533 4.01416 6.40284 3.53664L5.1529 0.724262V0.721332Z" fill="#787878"/>
</svg>
