<svg width="72" height="73" viewBox="0 0 72 73" fill="none" xmlns="http://www.w3.org/2000/svg">
<ellipse cx="36" cy="36.5" rx="36" ry="36.5" fill="#989898"/>
<path d="M57.4492 26.9181C57.4835 27.3534 57.4835 27.7887 57.4835 28.224C57.4835 41.4999 46.3478 56.7969 25.9949 56.7969C19.7246 56.7969 13.8998 55.149 9 52.2887C9.89089 52.3819 10.7474 52.413 11.6726 52.413C16.8463 52.413 21.6091 50.8274 25.4124 48.1225C20.5469 48.0292 16.4695 45.1377 15.0647 41.158C15.75 41.2512 16.4352 41.3134 17.1548 41.3134C18.1485 41.3134 19.1422 41.189 20.0673 40.9714C14.9962 40.0386 11.1928 35.9968 11.1928 31.1154V30.9911C12.6661 31.7373 14.3794 32.2037 16.1953 32.2658C13.2143 30.4625 11.2614 27.3845 11.2614 23.9022C11.2614 22.0368 11.8095 20.3267 12.7689 18.8343C18.2169 24.9282 26.406 28.9079 35.5887 29.3432C35.4174 28.597 35.3146 27.8198 35.3146 27.0425C35.3146 21.5082 40.2486 17 46.3818 17C49.5683 17 52.4465 18.2126 54.4681 20.1713C56.9693 19.7361 59.3678 18.8965 61.4922 17.7462C60.6698 20.0781 58.9224 22.0369 56.6267 23.2804C58.8539 23.0629 61.0125 22.5031 62.9998 21.7259C61.4924 23.7157 59.6078 25.4878 57.4492 26.9181Z" fill="#FFFBFB"/>
</svg>
